HIERARCHY
ROOT Hips
{
  OFFSET 273.855 97.3773 561.785
  CHANNELS 6 Xposition Yposition Zposition Zrotation Xrotation Yrotation
  JOINT RightUpLeg
  {
    OFFSET -8.9458 -8.66707 0.101652
    CHANNELS 3 Zrotation Xrotation Yrotation
    JOINT RightLeg
    {
      OFFSET 0 -44.4227 1.3727
      CHANNELS 3 Zrotation Xrotation Yrotation
      JOINT RightFoot
      {
        OFFSET 0.253549 -42.0924 -1.46059
        CHANNELS 3 Zrotation Xrotation Yrotation
        JOINT RightToes
        {
          OFFSET 0.04 -4.41509 8.4991
          CHANNELS 3 Zrotation Xrotation Yrotation
          End Site
          {
            OFFSET -0.08 -0.137448 9.77979
          }
        }
      }
    }
  }
  JOINT Spine
  {
    OFFSET 0 11.8905 0
    CHANNELS 3 Zrotation Xrotation Yrotation
    JOINT Spine1
    {
      OFFSET 0 25.6574 0.127663
      CHANNELS 3 Zrotation Xrotation Yrotation
      JOINT HEad
      {
        OFFSET 0 8.73416 0.011341
        CHANNELS 3 Zrotation Xrotation Yrotation
        End Site
        {
          OFFSET -0.29 12.7742 2.51395
        }
      }
      JOINT LeftShoulder1
      {
        OFFSET 8.99 -0.362252 -0.22
        CHANNELS 3 Zrotation Xrotation Yrotation
        JOINT LeftArm
        {
          OFFSET 10.2827 -0.00338 0.322123
          CHANNELS 3 Zrotation Xrotation Yrotation
          JOINT LeftForeArm
          {
            OFFSET 32.7669 0.099144 -1.42434
            CHANNELS 3 Zrotation Xrotation Yrotation
            JOINT LeftHand
            {
              OFFSET 27.5643 0.085362 1.02216
              CHANNELS 3 Zrotation Xrotation Yrotation
              End Site
              {
                OFFSET 16.7443 -0.6 1.50291
              }
            }
          }
        }
      }
      JOINT RightShoulder
      {
        OFFSET -8.99 -0.362252 -0.22
        CHANNELS 3 Zrotation Xrotation Yrotation
        JOINT RightArm
        {
          OFFSET -10.2827 -0.00338 0.322123
          CHANNELS 3 Zrotation Xrotation Yrotation
          JOINT RightForeArm
          {
            OFFSET -32.8971 0.099144 -1.42434
            CHANNELS 3 Zrotation Xrotation Yrotation
            JOINT RightHand
            {
              OFFSET -27.4921 0.085362 1.02216
              CHANNELS 3 Zrotation Xrotation Yrotation
              End Site
              {
                OFFSET -16.6312 -0.6 1.50291
              }
            }
          }
        }
      }
    }
  }
  JOINT LeftUpLeg
  {
    OFFSET 8.9458 -8.66707 0.101652
    CHANNELS 3 Zrotation Xrotation Yrotation
    JOINT LeftLeg
    {
      OFFSET 0 -44.4227 1.3727
      CHANNELS 3 Zrotation Xrotation Yrotation
      JOINT LeftFoot
      {
        OFFSET -0.253549 -42.0924 -1.46059
        CHANNELS 3 Zrotation Xrotation Yrotation
        JOINT LeftToes
        {
          OFFSET -0.04 -4.41509 8.4991
          CHANNELS 3 Zrotation Xrotation Yrotation
          End Site
          {
            OFFSET 0.08 -0.047448 9.77979
          }
        }
      }
    }
  }
}
MOTION
Frames:	10
Frame Time:	0.0166667
276.784 96.7177 562.258 -10.4004 9.19256 -132.744 -13.6998 9.60939 11.8392 14.3622 7.93338 -34.2987 83.8371 3.38582 -5.63256 0.0462048 0.000533403 0.662642 -5.42301 26.6571 -2.42732 3.21175e-008 -5.55495e-009 -1.54981e-006 0.361902 -0.842065 9.3008 1.59028e-015 -7.95139e-016 -0 -167.177 -52.5271 -133.657 -95.7628 66.46 -16.5996 22.0555 17.158 -14.3243 17.1816 6.79058 -4.67218 105.8 -5.85181 73.8731 36.1495 54.7954 80.5201 17.5359 20.1993 2.43039 24.5672 -12.0789 -9.75065 -35.5045 24.4998 69.4123 -10.0867 -4.855 -2.08718 -1.18447e-009 1.5602e-007 -4.87131e-009 
276.626 96.7759 562.325 -10.2716 9.18833 -132.824 -14.2109 8.66368 11.9297 15.8355 9.09252 -34.5697 81.3332 3.15975 -5.03427 0.0462048 0.000533403 0.662642 -5.11718 26.5423 -3.00727 3.21175e-008 -5.55495e-009 -1.54981e-006 0.0750272 -0.530552 10.0002 7.95139e-016 -5.56597e-015 -0 -166.12 -52.8863 -133.023 -93.6383 66.4916 -18.6327 21.9967 17.1722 -14.0843 16.9968 7.03045 -4.01875 105.874 -5.99865 73.9673 35.8791 54.8219 80.9404 17.6772 20.1659 2.19402 24.4163 -11.876 -9.51683 -34.7628 24.153 68.891 -10.189 -4.8423 -2.03515 -1.18446e-009 1.5602e-007 -4.87131e-009 
276.477 96.8253 562.38 -10.1589 9.17572 -132.848 -14.7116 7.70815 11.9187 17.3195 10.3139 -34.9022 78.7339 2.93655 -4.48061 0.0462048 0.000533403 0.662642 -4.80534 26.3998 -3.54924 3.21175e-008 -5.55495e-009 -1.54981e-006 -0.163147 -0.188451 10.5423 -3.08973e-031 -5.56597e-015 -3.18055e-015 -164.672 -53.2363 -132.002 -91.0272 66.4658 -21.0438 21.9554 17.1624 -13.871 16.7907 7.25549 -3.39332 105.948 -6.25729 74.0355 35.6723 54.8842 81.3904 17.8439 20.1415 1.95707 24.2588 -11.6394 -9.36234 -34.0278 23.6993 68.2871 -10.2381 -4.8375 -1.97963 -1.18447e-009 1.5602e-007 -4.87131e-009 
276.327 96.8678 562.422 -10.0638 9.15429 -132.817 -15.2025 6.7593 11.8153 18.7987 11.5836 -35.2932 76.0522 2.71738 -3.97102 0.0462048 0.000533403 0.662642 -4.50358 26.2348 -4.04087 3.21175e-008 -5.55495e-009 -1.54981e-006 -0.340883 0.174706 10.9236 -7.95139e-016 3.18055e-015 -6.36111e-015 -162.747 -53.5473 -130.516 -87.8371 66.368 -23.9061 21.9041 17.1678 -13.6865 16.5984 7.45623 -2.80628 105.988 -6.62525 74.0823 35.5411 54.9688 81.8495 18.0132 20.1053 1.76238 24.0936 -11.3766 -9.27701 -33.322 23.1681 67.6347 -10.2439 -4.833 -1.92091 -1.18446e-009 1.5602e-007 -4.87131e-009 
276.171 96.9058 562.448 -9.98798 9.12379 -132.732 -15.6855 5.8312 11.6304 20.2606 12.8879 -35.7402 73.2981 2.50414 -3.5046 0.0462048 0.000533403 0.662642 -4.22548 26.0511 -4.47234 3.21175e-008 -5.55495e-009 -1.54981e-006 -0.449671 0.549976 11.1447 7.95139e-016 -7.95139e-016 -9.54166e-015 -160.32 -53.786 -128.54 -84.0582 66.1713 -27.2238 21.8433 17.1725 -13.5256 16.4497 7.62767 -2.26691 105.974 -7.0967 74.1102 35.4836 55.0637 82.3012 18.1812 20.091 1.59414 23.9221 -11.0955 -9.25289 -32.6643 22.5824 66.9702 -10.2136 -4.82236 -1.85909 -1.18446e-009 1.5602e-007 -4.87131e-009 
276.006 96.9406 562.46 -9.93394 9.08604 -132.593 -16.161 4.93554 11.3777 21.6959 14.2128 -36.2431 70.478 2.29815 -3.07949 0.0462048 0.000533403 0.662642 -3.99184 25.8458 -4.82321 3.21175e-008 -5.55495e-009 -1.54981e-006 -0.475081 0.939509 11.2027 -1.59028e-015 -7.95139e-016 3.18055e-015 -150.132 -53.7359 -119.991 -69.7121 65.1193 -39.3088 21.7434 17.2031 -13.3495 16.3488 7.77848 -1.7638 105.929 -7.68001 74.1481 35.4976 55.1445 82.7083 18.3243 20.0906 1.47326 23.7471 -10.8038 -9.28322 -32.0673 21.9624 66.328 -10.1528 -4.80054 -1.79418 -1.18446e-009 1.5602e-007 -4.87131e-009 
275.833 96.9729 562.46 -9.90278 9.04288 -132.403 -16.6277 4.07919 11.0714 23.0967 15.5429 -36.8043 67.5947 2.10065 -2.69365 0.0462048 0.000533403 0.662642 -3.80815 25.6275 -5.09603 3.21175e-008 -5.55495e-009 -1.54981e-006 -0.418572 1.32683 11.1149 -1.59028e-015 7.95139e-016 -0 -142.949 -53.3853 -113.94 -60.4027 63.4684 -47.3436 21.5943 17.2322 -13.1747 16.3225 7.91135 -1.33563 105.837 -8.32601 74.1726 35.5461 55.2208 83.0979 18.4381 20.1076 1.37842 23.5726 -10.5114 -9.36007 -31.5376 21.3256 65.7372 -10.0657 -4.76359 -1.72609 -1.18446e-009 1.5602e-007 -4.87131e-009 
275.652 97.0044 562.449 -9.89377 8.9945 -132.162 -17.0822 3.26583 10.7256 24.4558 16.8607 -37.4265 64.6483 1.91244 -2.3446 0.0462048 0.000533403 0.662642 -3.67751 25.4033 -5.29601 3.21175e-008 -5.55495e-009 -1.54981e-006 -0.286184 1.69822 10.9014 7.95139e-016 -3.97569e-015 -0 -137.744 -52.9328 -109.521 -54.3258 61.7671 -52.6479 21.3396 17.2748 -12.9551 16.3396 8.03576 -0.955929 105.745 -9.02512 74.1945 35.6053 55.2943 83.4679 18.52 20.1168 1.31319 23.4019 -10.2288 -9.47393 -31.0766 20.6882 65.2193 -9.95706 -4.70875 -1.65484 -1.18446e-009 1.5602e-007 -4.87131e-009 
275.463 97.0371 562.425 -9.90497 8.93991 -131.875 -17.52 2.49814 10.3528 25.7656 18.1485 -38.1105 61.6374 1.73362 -2.02953 0.0462048 0.000533403 0.662642 -3.60192 25.1788 -5.42986 3.21175e-008 -5.55495e-009 -1.54981e-006 -0.0889453 2.037 10.5859 -1.59028e-015 3.97569e-015 -0 -133.839 -52.4103 -106.154 -50.2014 60.203 -56.2252 21.0689 17.3011 -12.8046 16.389 8.15725 -0.635198 105.67 -9.73242 74.2058 35.6527 55.3691 83.827 18.5836 20.1152 1.25293 23.2363 -9.96479 -9.61438 -30.6807 20.0659 64.7855 -9.83305 -4.63448 -1.58073 -1.18446e-009 1.5602e-007 -4.87131e-009 
275.264 97.0731 562.387 -9.93392 8.87814 -131.548 -17.9357 1.77881 9.96449 27.0184 19.3901 -38.8529 58.5601 1.56381 -1.74577 0.0462048 0.000533403 0.662642 -3.58203 24.9589 -5.50438 3.21175e-008 -5.55495e-009 -1.54981e-006 0.159887 2.3304 10.1919 -7.95139e-016 0 3.18055e-015 -130.808 -51.819 -103.486 -47.2625 58.8237 -58.7018 20.7723 17.3347 -12.6675 16.4623 8.27746 -0.383525 105.611 -10.4028 74.1939 35.6628 55.4437 84.195 18.6484 20.1013 1.19488 23.0757 -9.72499 -9.77179 -30.3433 19.474 64.4368 -9.70184 -4.54022 -1.5044 -1.18446e-009 1.5602e-007 -4.87131e-009 
